<svg width="600" height="450" viewBox="0 0 600 450" fill="none" xmlns="http://www.w3.org/2000/svg">
<path d="M594.417 445.273H0V447.036H594.417V445.273Z" fill="#3F3D56"/>
<path d="M318.707 437.82C311.222 437.809 303.918 440.721 297.801 446.155H339.585C333.477 440.727 326.183 437.816 318.707 437.82V437.82Z" fill="#E6E6E6"/>
<path d="M198.38 158.901C198.38 158.901 171.4 148.319 175.542 165.73C179.684 183.14 202.408 174.346 202.408 174.346L198.38 158.901Z" fill="#FFB8B8"/>
<path d="M301.512 93.5515C301.512 93.5515 287.685 69.7597 274.252 94.4587C260.792 119.206 248.278 139.522 248.278 139.522L214.85 153.247L195.51 155.408L200.838 177.059L257.068 166.787C257.068 166.787 319.671 119.961 301.512 93.5515Z" fill="#2F2E41"/>
<path d="M239.797 225.31C239.797 225.31 218.793 243.824 220.193 260.575C221.594 277.325 230.696 323.169 230.696 323.169L249.599 319.643C249.599 319.643 251.7 284.378 244.698 271.154L278.305 247.351L239.797 225.31Z" fill="#FFB8B8"/>
<path d="M286.356 268.95C286.356 268.95 284.956 301.57 288.457 314.794C291.958 328.018 295.458 377.389 295.458 377.389H315.062C315.062 377.389 324.164 334.19 312.962 314.794C312.962 314.794 309.461 289.227 319.263 276.885L286.356 268.95Z" fill="#FFB8B8"/>
<path d="M281.806 178.585C281.806 178.585 236.297 214.731 236.297 226.192L272.704 264.101L285.306 246.469L283.906 272.917L323.114 282.615C323.114 282.615 337.117 215.612 336.416 212.968C335.716 210.323 333.616 171.532 333.616 171.532L281.806 178.585Z" fill="#2F2E41"/>
<path d="M249.599 315.235L229.295 320.525L232.903 339.199C234.678 348.391 234.88 357.953 233.496 367.25V367.25C233.496 367.25 254.5 374.303 254.5 370.777C254.5 367.25 249.599 353.144 251 343.447C252.4 333.749 249.599 315.235 249.599 315.235Z" fill="#6C63FF"/>
<path d="M260.101 381.356C259.401 377.83 253.584 361.841 253.342 364.546C253.1 367.25 241.898 371.658 237.697 366.369C237.697 366.369 232.096 360.197 229.995 366.369C227.895 372.54 223.694 383.119 223.694 383.119C223.694 383.119 204.79 394.58 207.591 400.752C208.157 402 209.727 402.526 211.869 402.572C211.819 402.736 211.793 402.909 211.792 403.084V403.709C211.792 404.094 211.913 404.463 212.129 404.735C212.345 405.007 212.638 405.16 212.944 405.16H213.44C213.746 405.16 214.039 405.007 214.255 404.735C214.471 404.463 214.592 404.094 214.592 403.709V403.084C214.591 402.859 214.548 402.638 214.467 402.437C215.039 402.374 215.633 402.291 216.244 402.19C216.082 402.443 215.994 402.759 215.993 403.084V403.709C215.993 404.094 216.114 404.463 216.33 404.735C216.546 405.007 216.839 405.16 217.145 405.16H217.641C217.947 405.16 218.24 405.007 218.456 404.735C218.672 404.463 218.793 404.094 218.793 403.709V403.084C218.793 402.826 218.737 402.572 218.632 402.35C218.527 402.128 218.377 401.945 218.197 401.821C219.809 401.482 221.491 401.051 223.163 400.574C223.053 400.799 222.995 401.057 222.994 401.321V401.946C222.994 402.33 223.115 402.699 223.331 402.971C223.548 403.244 223.841 403.396 224.146 403.396H224.642C224.948 403.396 225.241 403.244 225.457 402.971C225.673 402.699 225.795 402.33 225.795 401.946V401.321C225.794 401.04 225.73 400.766 225.608 400.531C225.486 400.296 225.313 400.11 225.11 399.997C226.364 399.612 227.593 399.21 228.763 398.812C228.654 399.037 228.596 399.294 228.595 399.558V400.182C228.595 400.567 228.717 400.936 228.933 401.208C229.149 401.48 229.442 401.633 229.747 401.633H230.243C230.549 401.633 230.842 401.48 231.058 401.208C231.274 400.936 231.396 400.567 231.396 400.182V399.558C231.395 399.249 231.316 398.949 231.17 398.701C231.025 398.453 230.82 398.27 230.585 398.179C234.697 396.721 237.697 395.462 237.697 395.462C237.697 395.462 241.18 393.866 245.398 391.709V392.248C245.398 392.633 245.52 393.002 245.736 393.274C245.952 393.546 246.245 393.699 246.551 393.699H247.047C247.352 393.699 247.645 393.546 247.862 393.274C248.078 393.002 248.199 392.633 248.199 392.248V391.623C248.199 391.403 248.158 391.186 248.081 390.989C248.004 390.792 247.892 390.619 247.753 390.485C248.6 390.037 249.454 389.576 250.299 389.107V389.603C250.299 389.988 250.421 390.357 250.637 390.629C250.853 390.901 251.146 391.054 251.452 391.054H251.948C252.253 391.054 252.546 390.901 252.762 390.629C252.979 390.357 253.1 389.988 253.1 389.603V388.978C253.1 388.745 253.055 388.515 252.969 388.308C252.883 388.101 252.759 387.924 252.607 387.791C253.52 387.254 254.4 386.718 255.212 386.193C255.208 386.24 255.2 386.285 255.2 386.333V386.958C255.2 387.343 255.322 387.712 255.538 387.984C255.754 388.256 256.047 388.409 256.353 388.409H256.849C257.154 388.409 257.447 388.256 257.663 387.984C257.88 387.712 258.001 387.343 258.001 386.958V386.333C258.001 385.999 257.909 385.675 257.741 385.416C257.573 385.157 257.339 384.979 257.079 384.912C259.037 383.48 260.271 382.21 260.101 381.356Z" fill="#2F2E41"/>
<path d="M316.462 373.421L294.282 371.658C294.282 371.658 295.626 400.752 292.938 410.449C290.249 420.147 291.594 423.674 291.594 423.674L311.085 425.437L316.462 373.421Z" fill="#6C63FF"/>
<path d="M316.735 437.722C316.635 434.089 313.593 416.924 312.908 419.506C312.224 422.088 300.538 423.458 297.305 417.181C297.305 417.181 292.849 409.675 289.773 415.159C286.697 420.643 280.836 429.887 280.836 429.887C280.836 429.887 260.45 436.133 262.167 442.904C262.515 444.274 263.962 445.201 266.05 445.808C265.974 445.955 265.92 446.117 265.89 446.288L265.786 446.899C265.723 447.276 265.78 447.668 265.946 447.991C266.113 448.314 266.374 448.541 266.673 448.621L267.158 448.751C267.457 448.831 267.769 448.759 268.025 448.549C268.282 448.34 268.462 448.011 268.525 447.635L268.629 447.024C268.665 446.803 268.659 446.575 268.613 446.358C269.183 446.447 269.778 446.521 270.392 446.582C270.192 446.788 270.053 447.073 269.998 447.391L269.895 448.002C269.831 448.379 269.889 448.771 270.055 449.094C270.221 449.417 270.483 449.644 270.781 449.724L271.267 449.854C271.565 449.934 271.877 449.862 272.134 449.652C272.39 449.443 272.57 449.114 272.634 448.738L272.737 448.127C272.779 447.874 272.767 447.611 272.701 447.366C272.636 447.122 272.519 446.903 272.364 446.735C273.996 446.827 275.712 446.847 277.427 446.819C277.282 447.01 277.182 447.247 277.138 447.505L277.034 448.116C276.97 448.492 277.028 448.885 277.194 449.208C277.361 449.531 277.622 449.757 277.921 449.838L278.406 449.968C278.705 450.048 279.017 449.975 279.273 449.766C279.53 449.557 279.709 449.228 279.773 448.851L279.877 448.24C279.923 447.966 279.905 447.681 279.825 447.419C279.745 447.157 279.606 446.93 279.426 446.766C280.716 446.718 281.985 446.649 283.196 446.566C283.052 446.757 282.952 446.994 282.908 447.251L282.804 447.862C282.74 448.238 282.798 448.631 282.964 448.954C283.131 449.277 283.392 449.503 283.691 449.584L284.176 449.714C284.475 449.794 284.787 449.722 285.043 449.512C285.3 449.303 285.479 448.974 285.543 448.597L285.647 447.986C285.697 447.684 285.67 447.37 285.568 447.089C285.467 446.808 285.296 446.576 285.082 446.426C289.345 446.079 292.487 445.635 292.487 445.635C292.487 445.635 296.159 444.989 300.641 443.987L300.552 444.514C300.488 444.89 300.546 445.283 300.712 445.606C300.878 445.929 301.14 446.155 301.439 446.235L301.924 446.365C302.223 446.446 302.535 446.373 302.791 446.164C303.047 445.954 303.227 445.625 303.291 445.249L303.394 444.638C303.43 444.423 303.427 444.2 303.384 443.987C303.341 443.774 303.26 443.575 303.147 443.408C304.049 443.192 304.961 442.965 305.865 442.729L305.783 443.214C305.719 443.59 305.777 443.983 305.943 444.306C306.11 444.629 306.371 444.855 306.67 444.935L307.155 445.066C307.454 445.146 307.766 445.073 308.022 444.864C308.279 444.654 308.458 444.325 308.522 443.949L308.626 443.338C308.664 443.11 308.658 442.873 308.609 442.648C308.559 442.424 308.467 442.217 308.34 442.047C309.322 441.762 310.272 441.469 311.152 441.168C311.141 441.213 311.126 441.256 311.118 441.303L311.014 441.914C310.951 442.29 311.008 442.683 311.174 443.006C311.341 443.329 311.602 443.555 311.901 443.635L312.386 443.766C312.685 443.846 312.997 443.773 313.253 443.564C313.51 443.354 313.69 443.025 313.753 442.649L313.857 442.038C313.912 441.711 313.876 441.37 313.755 441.072C313.633 440.775 313.434 440.539 313.19 440.406C315.342 439.52 316.76 438.602 316.735 437.722Z" fill="#2F2E41"/>
<path d="M281.806 63.9746C293.019 63.9746 302.11 52.528 302.11 38.4078C302.11 24.2876 293.019 12.8409 281.806 12.8409C270.592 12.8409 261.502 24.2876 261.502 38.4078C261.502 52.528 270.592 63.9746 281.806 63.9746Z" fill="#FFB8B8"/>
<path d="M300.009 35.7629C300.009 35.7629 311.211 53.3952 316.813 52.5136L292.308 76.3172C292.308 76.3172 289.507 61.3298 286.006 59.5665C282.506 57.8033 300.009 35.7629 300.009 35.7629Z" fill="#FFB8B8"/>
<path d="M343.768 166.683C343.768 166.683 343.766 69.3998 330.806 61.0196C317.854 52.6443 309.286 47.864 309.286 47.864C309.095 51.0561 308.374 54.1623 307.171 56.9819C305.967 59.8015 304.307 62.2717 302.298 64.2331C298.003 68.4081 293.725 71.8701 291.334 71.8812L291.257 71.4683L290.966 70.4202L283.906 84.2517C283.906 84.2517 277.605 86.015 275.504 91.3047C274.368 94.1664 279.727 122.975 276.555 149.05C273.863 171.173 262.523 191.144 262.202 193.572C261.658 197.676 275.442 186.923 281.648 181.896C281.74 182.025 281.806 182.111 281.806 182.111C281.806 182.111 278.305 183.874 285.306 181.229C289.273 179.731 294.812 179.648 298.869 179.857C298.864 181.389 298.893 182.606 298.959 183.433C299.659 192.25 334.666 204.592 339.567 201.947C344.468 199.302 343.768 166.683 343.768 166.683Z" fill="#2F2E41"/>
<path d="M319.263 200.184C319.263 200.184 298.259 223.988 312.262 228.396C326.264 232.804 331.865 203.711 331.865 203.711L319.263 200.184Z" fill="#FFB8B8"/>
<path d="M294.758 261.897C294.758 261.897 304.56 250.436 310.161 256.608C315.762 262.779 319.263 267.187 319.263 267.187C319.263 267.187 303.16 254.844 294.758 261.897Z" fill="#6C63FF"/>
<path d="M297.304 399.031C297.304 399.031 302.829 392.571 305.986 396.05C309.143 399.528 311.116 402.012 311.116 402.012C311.116 402.012 302.04 395.056 297.304 399.031Z" fill="#2F2E41"/>
<path d="M235.41 338.945C235.41 338.945 239.202 330.74 243.026 332.911C246.851 335.082 249.313 336.736 249.313 336.736C249.313 336.736 239.021 333.406 235.41 338.945Z" fill="#2F2E41"/>
<path d="M338.477 73.1159C331.537 55.5489 310.42 65.1299 313.851 84.269C313.902 84.5543 313.956 84.8425 314.012 85.1334C317.629 103.251 323.539 120.516 331.515 136.267L323.814 179.466L315.412 201.507L332.916 206.796L354.62 140.675C354.62 140.675 348.633 98.8221 338.477 73.1159Z" fill="#2F2E41"/>
<path opacity="0.2" d="M328.365 137.589L315.062 201.066L326.264 171.091L328.365 137.589Z" fill="black"/>
<path d="M294.557 8.60574C294.557 8.60574 283.334 -6.27283 272.037 3.09713C260.74 12.4671 255.381 21.5691 256.489 27.9066C257.596 34.2442 260.874 43.0594 260.874 43.0594C260.874 43.0594 258.837 29.9298 268.191 28.9582C277.545 27.9866 290.469 20.1917 290.469 20.1917L299.21 43.699C299.21 43.699 300.446 38.2516 303.873 39.814C307.299 41.3765 304.643 10.3484 294.557 8.60574Z" fill="#2F2E41"/>
<path d="M222.644 344.769C222.643 347.002 222.496 349.231 222.203 351.434V351.443C221.399 357.368 219.537 362.985 216.756 367.871C213.976 372.757 210.351 376.784 206.154 379.648C201.958 382.512 197.299 384.138 192.53 384.403C187.762 384.668 183.007 383.566 178.626 381.18H178.619C177.323 380.475 176.067 379.659 174.859 378.738C171.118 375.893 167.886 372.101 165.37 367.601C162.853 363.101 161.107 357.992 160.241 352.598C159.835 350.02 159.631 347.397 159.631 344.769C159.631 343.57 159.673 342.38 159.758 341.207V341.198C160.484 331.075 164.269 321.689 170.331 314.976C176.393 308.264 184.271 304.738 192.337 305.126C200.404 305.514 208.044 309.786 213.682 317.061C219.32 324.336 222.526 334.058 222.637 344.222V344.231C222.644 344.416 222.644 344.584 222.644 344.769Z" fill="#6C63FF"/>
<path d="M198.893 331.518H184.782L177.727 316.134L182.513 305.689L182.792 305.594C188.851 303.555 195.249 303.781 201.208 306.242L201.461 306.348L205.949 316.134L198.893 331.518ZM185.591 329.755H198.085L204.332 316.134L200.517 307.813C194.98 305.603 189.062 305.391 183.435 307.204L179.344 316.134L185.591 329.755Z" fill="white"/>
<path d="M198.193 363.257H184.082L177.027 347.869L184.082 332.481H198.193L205.249 347.869L198.193 363.257ZM184.89 361.494H197.385L203.632 347.869L197.385 334.245H184.89L178.644 347.869L184.89 361.494Z" fill="white"/>
<path d="M191.138 385.323C186.737 385.334 182.382 384.198 178.347 381.988L177.628 381.594L184.782 365.98H198.893L205.746 380.928L205.066 381.34C200.722 383.976 195.96 385.338 191.138 385.323V385.323ZM179.63 380.753C183.479 382.704 187.602 383.656 191.75 383.552C195.899 383.449 199.989 382.293 203.774 380.152L198.085 367.743H185.591L179.63 380.753Z" fill="white"/>
<path d="M221.998 347.387H207.887L200.831 332.003L207.887 316.61H214.312L214.519 316.884C220.091 324.266 223.241 334.028 223.337 344.211V344.467L221.998 347.387ZM208.695 345.624H221.19L221.934 344.001C221.799 334.473 218.869 325.344 213.708 318.373H208.696L202.448 332.003L208.695 345.624Z" fill="white"/>
<path d="M207.692 379.576L200.831 364.623L207.887 349.23H221.997L222.903 351.196L222.893 351.59C222.128 357.205 220.435 362.554 217.922 367.291C215.409 372.028 212.134 376.046 208.308 379.087L207.692 379.576ZM202.448 364.623L208.172 377.096C211.639 374.195 214.605 370.441 216.89 366.06C219.176 361.678 220.734 356.76 221.471 351.601L221.19 350.993H208.696L202.448 364.623Z" fill="white"/>
<path d="M175.109 379.957L174.498 379.492C170.674 376.582 167.372 372.705 164.8 368.105C162.227 363.506 160.441 358.284 159.554 352.771L159.502 352.444L160.978 349.23H175.089L182.144 364.623L175.109 379.957ZM160.98 352.748C161.831 357.81 163.474 362.607 165.816 366.859C168.157 371.111 171.148 374.732 174.615 377.509L180.527 364.623L174.28 350.993H161.786L160.98 352.748Z" fill="white"/>
<path d="M175.089 345.624H160.978L159.057 341.444V341.207C159.749 331.216 163.364 321.905 169.202 315.083L169.403 314.847H175.089L182.144 330.24L175.089 345.624ZM161.786 343.861H174.28L180.527 330.24L174.28 316.61H169.956C164.554 323.029 161.186 331.698 160.475 341.008L161.786 343.861Z" fill="white"/>
</svg>
