<svg width="602" height="420" viewBox="0 0 602 420" fill="none" xmlns="http://www.w3.org/2000/svg">
<g id="undraw_junior_soccer_6sop 1">
<path id="Vector" d="M602 420H0V417H602V420Z" fill="black" fill-opacity="0.5"/>
<g id="player">
<g id="left-hand">
<path id="Vector_2" d="M199.041 148.308C199.041 148.308 171.972 138.431 176.127 154.681C180.283 170.931 203.083 162.723 203.083 162.723L199.041 148.308Z" fill="#FFB8B8"/>
<path id="Vector_3" d="M302.517 87.3148C302.517 87.3148 288.644 65.109 275.166 88.1614C261.662 111.259 249.106 130.221 249.106 130.221L215.566 143.031L196.162 145.047L201.507 165.255L257.925 155.668C257.925 155.668 320.736 111.963 302.517 87.3148Z" fill="#2F2E41"/>
</g>
<g id="hip">
<path id="Vector_4" d="M282.745 166.679C282.745 166.679 237.084 200.415 237.084 211.112L273.613 246.494L286.257 230.038L284.852 254.723L324.191 263.774C324.191 263.774 338.24 201.238 337.538 198.77C336.835 196.301 334.728 160.096 334.728 160.096L282.745 166.679Z" fill="#2F2E41"/>
</g>
<g id="left-leg">
<path id="Vector_5" d="M240.597 210.289C240.597 210.289 219.522 227.569 220.927 243.203C222.332 258.837 231.464 301.625 231.464 301.625L250.431 298.333C250.431 298.333 252.539 265.42 245.514 253.077L279.233 230.86L240.597 210.289Z" fill="#FFB8B8"/>
<path id="Vector_6" d="M260.968 355.932C260.266 352.641 254.429 337.718 254.186 340.242C253.944 342.767 242.704 346.881 238.489 341.944C238.489 341.944 232.869 336.184 230.762 341.944C228.655 347.704 224.44 357.578 224.44 357.578C224.44 357.578 205.473 368.275 208.283 374.035C208.851 375.2 210.426 375.691 212.575 375.734C212.525 375.887 212.499 376.048 212.498 376.212V376.795C212.498 377.154 212.62 377.498 212.836 377.752C213.053 378.006 213.347 378.149 213.654 378.149H214.152C214.458 378.149 214.752 378.006 214.969 377.752C215.186 377.498 215.308 377.154 215.308 376.795V376.212C215.307 376.002 215.263 375.795 215.181 375.608C215.756 375.549 216.352 375.471 216.965 375.377C216.802 375.614 216.714 375.908 216.713 376.212V376.795C216.713 377.154 216.834 377.498 217.051 377.752C217.268 378.006 217.562 378.149 217.869 378.149H218.366C218.673 378.149 218.967 378.006 219.184 377.752C219.401 377.498 219.522 377.154 219.522 376.795V376.212C219.522 375.97 219.466 375.734 219.361 375.527C219.256 375.319 219.105 375.149 218.925 375.033C220.541 374.717 222.229 374.315 223.907 373.869C223.797 374.079 223.738 374.32 223.737 374.566V375.149C223.737 375.508 223.859 375.853 224.076 376.107C224.293 376.361 224.587 376.503 224.893 376.503H225.391C225.698 376.503 225.992 376.361 226.209 376.107C226.425 375.853 226.547 375.508 226.547 375.149V374.566C226.547 374.304 226.482 374.048 226.36 373.829C226.238 373.609 226.064 373.436 225.86 373.33C227.118 372.971 228.352 372.596 229.526 372.225C229.416 372.434 229.358 372.675 229.357 372.92V373.503C229.357 373.863 229.479 374.207 229.696 374.461C229.913 374.715 230.207 374.858 230.513 374.858H231.011C231.318 374.858 231.612 374.715 231.828 374.461C232.045 374.207 232.167 373.863 232.167 373.503V372.92C232.166 372.632 232.087 372.352 231.941 372.121C231.795 371.889 231.589 371.719 231.354 371.634C235.479 370.273 238.489 369.098 238.489 369.098C238.489 369.098 241.984 367.608 246.216 365.595V366.098C246.216 366.457 246.338 366.801 246.555 367.055C246.772 367.309 247.066 367.452 247.372 367.452H247.87C248.177 367.452 248.471 367.309 248.688 367.055C248.905 366.801 249.026 366.457 249.026 366.098V365.515C249.026 365.309 248.985 365.107 248.908 364.923C248.83 364.739 248.718 364.578 248.579 364.452C249.429 364.034 250.286 363.604 251.134 363.166V363.629C251.134 363.989 251.256 364.333 251.472 364.587C251.689 364.841 251.983 364.984 252.29 364.984H252.788C253.094 364.984 253.388 364.841 253.605 364.587C253.822 364.333 253.944 363.989 253.944 363.629V363.046C253.944 362.828 253.898 362.614 253.812 362.421C253.726 362.228 253.601 362.062 253.449 361.938C254.366 361.437 255.248 360.937 256.062 360.446C256.059 360.49 256.051 360.533 256.051 360.578V361.161C256.051 361.52 256.173 361.864 256.39 362.118C256.606 362.372 256.9 362.515 257.207 362.515H257.705C258.011 362.515 258.306 362.372 258.522 362.118C258.739 361.864 258.861 361.52 258.861 361.161V360.578C258.861 360.266 258.769 359.963 258.6 359.721C258.432 359.479 258.197 359.313 257.936 359.251C259.9 357.915 261.138 356.73 260.968 355.932Z" fill="#2F2E41"/>
<path id="Vector_7" d="M250.431 294.219L230.06 299.156L233.679 316.586C235.46 325.165 235.663 334.089 234.274 342.767V342.767C234.274 342.767 255.349 349.35 255.349 346.058C255.349 342.767 250.431 329.601 251.836 320.55C253.241 311.499 250.431 294.219 250.431 294.219Z" fill="#6C63FF"/>
<path id="Vector_8" d="M236.194 316.349C236.194 316.349 240 308.691 243.837 310.717C247.674 312.743 250.144 314.287 250.144 314.287C250.144 314.287 239.818 311.179 236.194 316.349Z" fill="#2F2E41"/>
</g>
<g id="right-leg">
<path id="Vector_9" d="M287.311 251.02C287.311 251.02 285.906 281.465 289.418 293.808C292.931 306.15 296.443 352.23 296.443 352.23H316.112C316.112 352.23 325.244 311.91 314.005 293.808C314.005 293.808 310.493 269.945 320.327 258.426L287.311 251.02Z" fill="#FFB8B8"/>
<path id="Vector_10" d="M317.791 408.54C317.69 405.15 314.638 389.129 313.951 391.539C313.264 393.948 301.539 395.227 298.296 389.369C298.296 389.369 293.825 382.363 290.739 387.482C287.652 392.601 281.773 401.228 281.773 401.228C281.773 401.228 261.319 407.058 263.041 413.377C263.39 414.655 264.842 415.521 266.937 416.088C266.861 416.224 266.806 416.376 266.776 416.536L266.672 417.106C266.608 417.457 266.666 417.824 266.833 418.125C267 418.427 267.262 418.638 267.562 418.713L268.049 418.834C268.349 418.909 268.661 418.842 268.919 418.646C269.176 418.451 269.356 418.144 269.42 417.792L269.524 417.222C269.56 417.016 269.555 416.804 269.508 416.601C270.08 416.684 270.677 416.753 271.293 416.81C271.093 417.002 270.953 417.268 270.898 417.565L270.794 418.135C270.73 418.487 270.788 418.853 270.955 419.155C271.122 419.456 271.384 419.667 271.684 419.742L272.171 419.864C272.471 419.939 272.784 419.871 273.041 419.675C273.298 419.48 273.479 419.173 273.543 418.822L273.646 418.251C273.689 418.015 273.676 417.77 273.61 417.542C273.544 417.313 273.427 417.11 273.271 416.952C274.909 417.038 276.631 417.057 278.351 417.031C278.206 417.209 278.106 417.431 278.061 417.671L277.958 418.242C277.894 418.593 277.952 418.959 278.118 419.261C278.285 419.562 278.547 419.773 278.847 419.848L279.334 419.97C279.634 420.045 279.947 419.977 280.204 419.782C280.461 419.586 280.642 419.279 280.706 418.928L280.81 418.358C280.856 418.102 280.838 417.835 280.758 417.591C280.677 417.347 280.538 417.135 280.357 416.981C281.652 416.937 282.925 416.872 284.14 416.795C283.995 416.973 283.895 417.194 283.851 417.434L283.747 418.005C283.683 418.356 283.741 418.722 283.908 419.024C284.074 419.325 284.337 419.536 284.636 419.611L285.123 419.733C285.423 419.808 285.736 419.74 285.993 419.545C286.251 419.349 286.431 419.042 286.495 418.691L286.599 418.121C286.649 417.839 286.622 417.545 286.52 417.283C286.418 417.021 286.247 416.804 286.033 416.664C290.31 416.34 293.462 415.926 293.462 415.926C293.462 415.926 297.146 415.323 301.643 414.388L301.554 414.879C301.49 415.231 301.548 415.597 301.714 415.899C301.881 416.2 302.144 416.411 302.443 416.486L302.93 416.608C303.23 416.683 303.543 416.615 303.8 416.42C304.058 416.224 304.238 415.917 304.302 415.566L304.406 414.995C304.442 414.795 304.438 414.587 304.395 414.388C304.352 414.189 304.271 414.004 304.157 413.847C305.063 413.646 305.978 413.434 306.885 413.213L306.802 413.666C306.738 414.017 306.796 414.384 306.963 414.685C307.13 414.987 307.392 415.198 307.692 415.273L308.179 415.394C308.479 415.469 308.792 415.402 309.049 415.206C309.306 415.011 309.487 414.704 309.551 414.352L309.654 413.782C309.693 413.569 309.687 413.348 309.637 413.138C309.587 412.929 309.495 412.736 309.368 412.577C310.353 412.311 311.306 412.037 312.189 411.757C312.178 411.799 312.163 411.839 312.155 411.883L312.051 412.453C311.987 412.804 312.045 413.171 312.212 413.472C312.379 413.773 312.641 413.985 312.941 414.06L313.427 414.181C313.727 414.256 314.04 414.188 314.298 413.993C314.555 413.797 314.735 413.49 314.799 413.139L314.903 412.569C314.958 412.263 314.922 411.945 314.8 411.667C314.679 411.39 314.479 411.17 314.234 411.045C316.393 410.218 317.816 409.362 317.791 408.54Z" fill="#2F2E41"/>
<path id="Vector_11" d="M295.741 244.437C295.741 244.437 305.575 233.74 311.195 239.5C316.815 245.26 320.327 249.374 320.327 249.374C320.327 249.374 304.17 237.855 295.741 244.437Z" fill="#6C63FF"/>
<path id="Vector_12" d="M317.517 348.527L295.263 346.881C295.263 346.881 296.612 374.035 293.914 383.086C291.217 392.137 292.565 395.429 292.565 395.429L312.122 397.074L317.517 348.527Z" fill="#6C63FF"/>
<path id="Vector_13" d="M298.295 372.429C298.295 372.429 303.838 366.4 307.006 369.646C310.173 372.893 312.153 375.212 312.153 375.212C312.153 375.212 303.046 368.719 298.295 372.429Z" fill="#2F2E41"/>
</g>
<g id="body">
<path id="Vector_14" d="M344.914 155.57C344.914 155.57 344.912 64.7731 331.909 56.9516C318.913 49.1346 310.316 44.6731 310.316 44.6731C310.125 47.6524 309.402 50.5515 308.195 53.1831C306.987 55.8147 305.322 58.1203 303.306 59.9508C298.997 63.8476 294.704 67.0787 292.306 67.089L292.228 66.7037L291.936 65.7255L284.852 78.6349C284.852 78.6349 278.53 80.2806 276.423 85.2176C275.283 87.8886 280.659 114.777 277.476 139.114C274.776 159.762 263.398 178.401 263.076 180.667C262.531 184.498 276.36 174.461 282.587 169.769C282.679 169.89 282.745 169.97 282.745 169.97C282.745 169.97 279.233 171.616 286.257 169.147C290.238 167.749 295.795 167.671 299.866 167.866C299.861 169.296 299.89 170.432 299.955 171.204C300.658 179.433 335.782 190.953 340.699 188.484C345.616 186.016 344.914 155.57 344.914 155.57Z" fill="#2F2E41"/>
<path id="Vector_15" d="M301.009 33.3787C301.009 33.3787 312.249 49.8355 317.869 49.0127L293.282 71.2294C293.282 71.2294 290.472 57.2411 286.96 55.5954C283.447 53.9497 301.009 33.3787 301.009 33.3787Z" fill="#FFB8B8"/>
<path id="Vector_16" opacity="0.2" d="M329.459 128.417L316.112 187.661L327.352 159.685L329.459 128.417Z" fill="black"/>
</g>
<g id="right-hand">
<path id="Vector_17" d="M320.327 186.838C320.327 186.838 299.253 209.055 313.302 213.169C327.352 217.283 332.972 190.13 332.972 190.13L320.327 186.838Z" fill="#FFB8B8"/>
<path id="Vector_18" d="M339.606 68.2415C332.642 51.8457 311.455 60.7879 314.897 78.6511C314.949 78.9174 315.002 79.1863 315.059 79.4578C318.687 96.3672 324.617 112.482 332.62 127.183L324.893 167.502L316.464 188.073L334.025 193.01L355.802 131.297C355.802 131.297 349.795 92.234 339.606 68.2415Z" fill="#2F2E41"/>
</g>
<g id="head">
<path id="Vector_19" d="M282.745 59.7096C293.996 59.7096 303.117 49.0261 303.117 35.8472C303.117 22.6684 293.996 11.9849 282.745 11.9849C271.494 11.9849 262.373 22.6684 262.373 35.8472C262.373 49.0261 271.494 59.7096 282.745 59.7096Z" fill="#FFB8B8"/>
<path id="Vector_20" d="M295.539 8.03202C295.539 8.03202 284.278 -5.85464 272.944 2.89065C261.609 11.6359 256.232 20.1312 257.344 26.0462C258.455 31.9613 261.744 40.1888 261.744 40.1888C261.744 40.1888 259.7 27.9345 269.085 27.0277C278.47 26.1209 291.437 18.8456 291.437 18.8456L300.208 40.7857C300.208 40.7857 301.448 35.7015 304.886 37.1597C308.323 38.618 305.659 9.65855 295.539 8.03202Z" fill="#2F2E41"/>
</g>
<g id="ball">
<path id="Vector_21" d="M223.386 321.784C223.385 323.869 223.237 325.949 222.944 328.005V328.013C222.137 333.543 220.268 338.786 217.479 343.346C214.69 347.906 211.052 351.665 206.841 354.338C202.631 357.011 197.957 358.528 193.172 358.776C188.387 359.024 183.617 357.995 179.222 355.768H179.215C177.914 355.11 176.654 354.349 175.442 353.488C171.688 350.833 168.446 347.294 165.921 343.094C163.396 338.894 161.644 334.126 160.775 329.091C160.367 326.685 160.163 324.237 160.164 321.784C160.164 320.665 160.206 319.554 160.29 318.46V318.452C161.019 309.003 164.816 300.243 170.899 293.978C176.981 287.713 184.885 284.422 192.978 284.785C201.072 285.147 208.738 289.134 214.395 295.924C220.052 302.714 223.268 311.788 223.379 321.274V321.282C223.386 321.455 223.386 321.611 223.386 321.784Z" fill="#6C63FF"/>
<path id="Vector_22" d="M199.556 309.417H185.398L178.319 295.058L183.121 285.309L183.401 285.221C189.48 283.318 195.9 283.529 201.878 285.826L202.133 285.925L206.635 295.058L199.556 309.417ZM186.209 307.771H198.745L205.013 295.058L201.185 287.293C195.63 285.229 189.692 285.032 184.046 286.724L179.942 295.058L186.209 307.771Z" fill="white"/>
<path id="Vector_23" d="M198.854 339.04H184.696L177.617 324.678L184.696 310.316H198.854L205.933 324.678L198.854 339.04ZM185.507 337.394H198.043L204.311 324.678L198.043 311.962H185.507L179.239 324.678L185.507 337.394Z" fill="white"/>
<path id="Vector_24" d="M222.738 324.228H208.58L201.501 309.869L208.58 295.503H215.026L215.234 295.759C220.825 302.648 223.985 311.759 224.082 321.264V321.502L222.738 324.228ZM209.391 322.582H221.927L222.674 321.068C222.538 312.174 219.599 303.654 214.421 297.148H209.391L203.123 309.869L209.391 322.582Z" fill="white"/>
<path id="Vector_25" d="M175.672 322.582H161.515L159.588 318.681V318.46C160.281 309.135 163.909 300.445 169.766 294.077L169.968 293.857H175.673L182.751 308.224L175.672 322.582ZM162.325 320.937H174.861L181.129 308.224L174.861 295.502H170.522C165.103 301.494 161.723 309.585 161.01 318.274L162.325 320.937Z" fill="white"/>
<path id="Vector_26" d="M175.692 354.626L175.079 354.193C171.243 351.477 167.93 347.858 165.349 343.565C162.768 339.272 160.976 334.399 160.086 329.253L160.034 328.948L161.514 325.948H175.673L182.751 340.314L175.692 354.626ZM161.517 329.232C162.37 333.956 164.019 338.434 166.368 342.402C168.717 346.37 171.719 349.749 175.197 352.342L181.129 340.314L174.861 327.593H162.325L161.517 329.232Z" fill="white"/>
<path id="Vector_27" d="M208.385 354.271L201.501 340.314L208.58 325.948H222.737L223.646 327.783L223.636 328.151C222.869 333.391 221.169 338.384 218.648 342.805C216.127 347.226 212.841 350.977 209.003 353.814L208.385 354.271ZM203.123 340.314L208.866 351.956C212.345 349.249 215.32 345.745 217.613 341.656C219.906 337.566 221.47 332.976 222.209 328.161L221.928 327.593H209.391L203.123 340.314Z" fill="white"/>
<path id="Vector_28" d="M191.775 359.635C187.36 359.645 182.99 358.585 178.942 356.522L178.22 356.155L185.398 341.582H199.556L206.432 355.533L205.749 355.917C201.391 358.377 196.613 359.648 191.775 359.635V359.635ZM180.228 355.37C184.091 357.19 188.227 358.079 192.39 357.982C196.552 357.886 200.655 356.806 204.453 354.809L198.745 343.227H186.21L180.228 355.37Z" fill="white"/>
</g>
</g>
</g>
</svg>
